<?xml version="1.0" standalone="no"?>
<!DOCTYPE svg PUBLIC "-//W3C//DTD SVG 20010904//EN"
 "http://www.w3.org/TR/2001/REC-SVG-20010904/DTD/svg10.dtd">
<svg version="1.0" xmlns="http://www.w3.org/2000/svg"
 width="2008.000000pt" height="856.000000pt" viewBox="0 0 2008.000000 856.000000"
 preserveAspectRatio="xMidYMid meet">

<g transform="translate(0.000000,856.000000) scale(0.100000,-0.100000)"
fill="#000000" stroke="none">
<path d="M0 4280 l0 -4280 10040 0 10040 0 0 4280 0 4280 -10040 0 -10040 0 0
-4280z m2897 3044 c-3 -3 -12 -4 -19 -1 -8 3 -5 6 6 6 11 1 17 -2 13 -5z m17
-44 c72 -28 135 -88 170 -161 49 -106 54 -225 61 -1654 7 -1439 14 -2018 26
-2110 16 -123 68 -210 175 -293 40 -30 177 -92 206 -92 8 0 20 -6 26 -12 9 -9
55 -13 157 -13 102 0 148 4 157 13 6 6 19 12 27 12 23 0 136 55 184 90 77 55
134 56 192 3 61 -57 158 -113 244 -142 49 -17 88 -22 166 -22 109 0 129 3 218
32 188 62 288 154 347 319 l24 65 3 855 c3 1009 11 1961 19 2115 9 207 26 265
96 335 108 107 360 106 465 -2 22 -24 52 -63 64 -88 l24 -45 0 -2090 c1 -1149
5 -2130 10 -2180 10 -104 8 -180 -6 -320 -11 -103 -49 -264 -74 -312 -8 -16
-15 -33 -15 -40 0 -27 -73 -169 -135 -262 -152 -232 -359 -400 -655 -534 -141
-64 -288 -93 -600 -117 -281 -22 -395 -24 -545 -10 -458 42 -578 72 -840 207
-63 32 -223 153 -283 213 -50 50 -139 161 -192 240 -19 29 -43 61 -52 71 -10
10 -39 49 -65 86 -26 38 -67 93 -91 123 -146 184 -187 235 -281 349 -57 69
-120 146 -141 171 -54 64 -112 136 -167 205 -27 33 -55 67 -65 77 -9 9 -51 60
-94 115 -43 54 -84 105 -91 113 -41 50 -182 227 -206 258 -16 20 -38 48 -50
62 -12 14 -53 63 -91 110 -38 47 -72 87 -76 90 -3 3 -53 64 -110 135 -58 72
-113 139 -123 150 -76 81 -142 195 -171 299 -68 235 73 470 333 553 67 22 88
24 181 20 203 -10 298 -66 476 -279 66 -78 139 -168 164 -200 67 -85 246 -305
304 -371 27 -33 70 -86 95 -120 25 -33 51 -62 57 -64 19 -6 44 27 43 55 -1 27
-1 27 -8 -3 -11 -52 -41 -44 -83 22 -20 32 -59 84 -87 116 -28 32 -51 61 -51
65 0 4 -15 23 -33 43 -17 19 -41 48 -52 63 -11 15 -28 37 -37 48 -22 26 -23
39 -3 32 8 -4 15 -12 15 -19 0 -7 7 -15 15 -19 8 -3 15 -12 15 -19 0 -7 11
-20 25 -27 13 -7 28 -22 31 -34 8 -24 23 -40 47 -49 9 -3 17 -13 17 -22 0 -8
4 -15 9 -15 5 0 18 -15 30 -32 11 -18 21 -26 21 -18 1 12 3 11 11 -2 13 -23
55 -23 65 0 4 9 10 55 14 102 l7 85 2 -90 c0 -49 5 -115 9 -145 4 -30 9 780
12 1800 l5 1855 24 64 c34 90 112 168 201 198 85 30 198 27 284 -7z m147 -62
c11 -21 11 -22 -4 -9 -10 7 -17 17 -17 22 0 15 9 10 21 -13z m2654 -498 c4 -6
-6 -7 -27 -3 -44 8 -48 13 -10 13 17 0 34 -4 37 -10z m42 -6 c-3 -3 -12 -4
-19 -1 -8 3 -5 6 6 6 11 1 17 -2 13 -5z m78 -24 c3 -5 2 -10 -4 -10 -5 0 -13
5 -16 10 -3 6 -2 10 4 10 5 0 13 -4 16 -10z m-2668 -162 c-2 -18 -4 -6 -4 27
0 33 2 48 4 33 2 -15 2 -42 0 -60z m2803 12 c0 -13 -1 -13 -10 0 -5 8 -10 22
-10 30 0 13 1 13 10 0 5 -8 10 -22 10 -30z m37 -302 c-2 -13 -4 -3 -4 22 0 25
2 35 4 23 2 -13 2 -33 0 -45z m-2823 -1028 c2 -19 7 -84 10 -145 3 -60 10
-173 15 -250 5 -77 9 -165 8 -195 0 -30 3 -104 8 -165 8 -99 9 -105 16 -63 4
26 10 145 14 265 4 120 11 220 16 221 5 2 7 8 3 13 -3 5 0 9 5 9 8 0 11 -231
11 -757 0 -825 0 -816 57 -909 34 -55 102 -116 156 -139 57 -23 44 -4 -19 30
-66 35 -112 88 -145 165 l-24 55 0 795 0 795 31 65 c17 36 46 79 64 97 47 46
142 90 237 108 77 16 88 16 170 -1 154 -30 247 -94 299 -207 l29 -62 3 -748
c3 -779 0 -853 -38 -925 -32 -59 -110 -132 -170 -159 -49 -22 -195 -47 -224
-38 -29 9 -169 13 -151 5 11 -5 35 -9 54 -9 18 -1 51 -6 71 -12 30 -9 56 -8
125 5 119 22 181 52 253 124 102 102 96 47 100 915 2 686 -2 840 -23 890 -5
12 -3 17 9 17 16 0 20 -10 17 -42 -1 -10 2 -18 7 -18 10 0 16 -22 31 -112 4
-26 10 -50 12 -53 11 -10 59 47 59 70 0 34 22 115 32 115 4 0 3 -12 -2 -27 -5
-16 -11 -50 -14 -78 -8 -71 -8 -1438 -1 -1510 8 -74 -10 -55 -25 27 -6 29 -15
55 -20 56 -6 2 -11 25 -11 50 -1 26 -5 61 -9 77 -7 28 -8 27 -9 -13 -2 -72
-22 -186 -37 -209 -8 -12 -14 -29 -14 -38 0 -9 -6 -26 -14 -38 -19 -30 -29
-90 -14 -81 7 5 8 3 4 -5 -5 -7 -1 -20 8 -30 15 -16 10 -21 -77 -79 -98 -64
-184 -94 -304 -107 -131 -14 -370 66 -458 153 -39 39 -95 115 -95 129 0 4 -7
22 -16 38 -25 45 -30 295 -37 2000 -3 709 -2 816 4 450 4 -264 10 -496 13
-515z m2816 759 l-11 -24 6 25 c2 14 6 72 7 130 l2 105 3 -106 c2 -60 -1 -116
-7 -130z m3138 145 c120 -27 228 -102 273 -191 13 -26 27 -51 32 -54 4 -3 15
-39 25 -80 20 -88 23 -418 4 -510 -16 -78 -65 -172 -114 -219 l-40 -40 76 -81
c78 -84 88 -102 60 -113 -10 -4 -45 21 -106 75 -63 57 -94 79 -106 74 -123
-47 -134 -49 -307 -49 -179 -1 -214 5 -310 50 -107 51 -179 134 -221 254 -23
66 -24 82 -24 300 0 208 2 236 21 292 12 35 27 70 33 78 7 8 18 28 26 44 31
62 143 139 240 167 102 29 315 30 438 3z m837 -16 c3 -13 6 -214 7 -448 l3
-425 29 -55 c34 -64 89 -121 145 -150 130 -66 401 -65 537 1 63 30 150 130
165 188 7 29 14 201 18 468 4 281 10 426 17 433 6 6 18 8 26 5 13 -5 16 -59
23 -388 7 -387 5 -446 -22 -527 -45 -139 -174 -244 -334 -269 -82 -14 -236
-14 -319 0 -129 20 -258 104 -307 201 -54 107 -56 125 -51 564 4 337 7 407 19
415 23 15 38 10 44 -13z m1909 -90 c30 -62 66 -140 79 -173 14 -33 51 -114 81
-180 31 -66 61 -129 65 -140 5 -11 27 -58 49 -105 55 -117 82 -178 82 -185 0
-4 18 -44 39 -88 74 -155 83 -179 73 -189 -26 -26 -48 0 -114 132 -37 74 -75
155 -85 180 -9 25 -23 55 -31 68 l-14 22 -312 0 -311 -1 -17 -37 c-9 -20 -32
-71 -51 -113 -20 -42 -50 -110 -67 -150 -37 -84 -55 -109 -81 -109 -23 0 -28
19 -12 50 7 14 33 72 57 130 24 58 61 141 81 185 20 44 42 94 49 110 14 31 25
56 101 220 25 55 50 109 55 120 11 26 64 142 101 222 16 34 29 65 29 70 0 4 9
23 20 41 15 24 27 32 49 32 28 0 33 -7 85 -112z m948 100 c9 -7 79 -94 157
-193 77 -99 153 -195 168 -213 16 -19 46 -58 68 -87 22 -30 68 -89 102 -132
34 -43 70 -88 80 -101 10 -13 23 -29 28 -35 10 -12 85 -107 122 -155 10 -13
28 -35 41 -49 13 -14 35 -44 50 -66 l27 -41 5 532 c5 542 7 563 43 549 10 -4
15 -36 20 -128 9 -156 9 -893 0 -981 -6 -66 -7 -68 -34 -68 -23 0 -40 14 -94
83 -36 45 -75 93 -87 107 -12 14 -46 59 -77 100 -31 41 -64 82 -73 92 -10 10
-43 52 -74 95 -31 43 -62 83 -68 88 -7 6 -54 65 -106 133 -52 67 -121 155
-152 195 -32 39 -79 100 -105 135 l-48 64 -3 -542 c-2 -470 -4 -541 -17 -546
-8 -4 -22 -1 -30 6 -13 11 -15 90 -15 579 0 428 3 570 12 579 15 15 40 15 60
0z m2253 -13 c0 -19 -8 -20 -227 -23 l-228 -2 -1 -128 c-11 -920 -13 -997 -33
-1000 -10 -2 -22 2 -27 10 -5 7 -9 262 -9 566 l0 552 -230 0 c-216 0 -230 1
-230 18 0 10 3 22 7 25 3 4 225 6 492 5 478 -3 486 -3 486 -23z m342 17 c9 -6
13 -119 15 -447 3 -428 4 -441 25 -485 31 -64 86 -124 140 -155 131 -73 435
-72 560 2 43 25 133 118 133 138 0 5 8 24 17 40 15 27 17 79 21 467 4 460 4
458 48 441 14 -5 15 -53 12 -447 l-3 -441 -25 -57 c-46 -103 -134 -180 -250
-218 -81 -28 -271 -38 -380 -21 -149 23 -264 102 -322 219 l-33 67 -3 444 c-2
356 0 446 10 452 16 11 20 11 35 1z m1587 -33 c15 -22 39 -61 53 -87 14 -26
40 -69 58 -97 46 -73 95 -155 95 -160 0 -3 25 -45 56 -93 32 -48 63 -100 71
-117 7 -16 21 -42 31 -57 80 -127 111 -178 116 -196 4 -12 11 -22 15 -22 4 0
13 -16 21 -35 8 -19 17 -35 21 -35 7 0 85 121 164 255 25 44 82 139 125 210
43 72 98 164 121 205 23 41 60 101 81 133 21 32 38 61 38 64 0 3 11 21 26 40
26 35 54 42 73 19 8 -9 10 -170 9 -581 -3 -525 -4 -569 -20 -579 -42 -26 -43
-12 -46 536 l-3 520 -20 -33 c-10 -19 -24 -46 -30 -61 -6 -16 -15 -28 -20 -28
-5 0 -9 -4 -9 -9 0 -10 -60 -111 -71 -121 -3 -3 -29 -48 -59 -100 -29 -52 -65
-113 -79 -135 -14 -22 -36 -60 -49 -85 -14 -25 -49 -85 -80 -135 -116 -189
-121 -195 -147 -195 -29 0 -52 33 -210 305 -54 94 -111 190 -126 215 -16 25
-52 86 -80 135 -29 50 -56 92 -61 93 -4 2 -8 8 -8 12 0 5 -18 38 -40 72 l-40
63 -1 -495 c-1 -272 -4 -508 -8 -525 -7 -32 -38 -46 -52 -23 -10 15 -12 1127
-3 1152 4 9 18 16 34 16 21 0 34 -9 54 -41z m-11008 -186 c-10 -10 -19 5 -10
18 6 11 8 11 12 0 2 -7 1 -15 -2 -18z m-7 -1551 c-9 -15 -10 -15 -5 1 3 10 7
357 8 770 l3 752 2 -753 c2 -528 0 -759 -8 -770z m-1138 812 c118 -27 222
-115 266 -224 17 -42 18 -104 21 -807 2 -654 0 -772 -13 -828 -30 -132 -129
-221 -283 -254 -103 -22 -275 -9 -339 24 -16 8 -33 15 -39 15 -7 0 -36 26 -66
59 -45 48 -58 71 -76 132 -22 73 -22 81 -22 830 0 746 0 756 22 820 27 81 69
141 127 180 42 27 59 34 151 58 56 15 175 12 251 -5z m-766 -73 c-6 -5 -44 41
-44 54 0 6 11 -3 24 -20 13 -16 22 -31 20 -34z m955 13 c0 -11 6 -15 19 -11
13 3 18 1 14 -8 -5 -16 33 -39 48 -29 7 4 9 0 5 -14 -4 -11 -2 -23 4 -27 5 -3
10 -16 9 -28 0 -21 0 -21 -17 3 -9 14 -36 46 -59 71 -44 47 -51 59 -33 59 6 0
10 -7 10 -16z m-1670 2 c0 -3 -4 -8 -10 -11 -5 -3 -10 -1 -10 4 0 6 5 11 10
11 6 0 10 -2 10 -4z m-46 -61 c-4 -8 -8 -15 -10 -15 -2 0 -4 7 -4 15 0 8 4 15
10 15 5 0 7 -7 4 -15z m809 -6 c4 -16 3 -18 -9 -8 -16 13 -19 29 -5 29 5 0 11
-9 14 -21z m-833 -57 c0 -10 -7 -27 -15 -38 -14 -19 -14 -19 -15 3 0 28 10 53
21 53 5 0 9 -8 9 -18z m1877 -59 c12 -21 24 -59 28 -85 8 -55 25 -55 25 1 0
20 6 46 14 56 11 16 14 4 19 -91 2 -60 6 -399 7 -754 2 -681 -1 -727 -46 -835
-48 -116 -202 -237 -330 -261 -21 -3 -45 -11 -52 -17 -7 -6 -65 -11 -130 -11
-94 0 -129 4 -177 20 -95 33 -155 68 -225 129 -36 31 -78 59 -94 62 -22 5 -25
8 -13 15 9 4 27 4 42 -2 43 -16 64 -13 58 10 -3 11 0 20 6 20 6 0 11 5 11 11
0 5 -4 7 -10 4 -5 -3 -10 -2 -10 4 0 5 5 13 10 16 6 3 10 2 10 -3 0 -5 18 -30
40 -55 79 -90 201 -137 355 -137 99 0 178 20 263 65 71 39 87 55 134 135 31
55 32 56 41 250 12 277 4 1437 -11 1452 -16 16 -15 38 1 38 7 0 23 -17 34 -37z
m823 -614 c0 -11 -4 -17 -10 -14 -5 3 -10 13 -10 21 0 8 5 14 10 14 6 0 10 -9
10 -21z m-3 -76 c-3 -10 -5 -2 -5 17 0 19 2 27 5 18 2 -10 2 -26 0 -35z
m-4472 7 c3 -5 2 -10 -4 -10 -5 0 -13 5 -16 10 -3 6 -2 10 4 10 5 0 13 -4 16
-10z m4472 -82 c-3 -8 -6 -5 -6 6 -1 11 2 17 5 13 3 -3 4 -12 1 -19z m-4362 2
c3 -5 2 -10 -4 -10 -5 0 -13 5 -16 10 -3 6 -2 10 4 10 5 0 13 -4 16 -10z
m4363 -132 c-1 -102 -2 -106 -7 -43 -3 39 -4 89 -2 113 6 79 11 43 9 -70z
m-4249 -3 c0 -5 -6 -1 -14 9 -8 11 -15 24 -15 30 0 5 7 1 15 -10 8 -10 14 -23
14 -29z m31 -23 c0 -4 21 -29 46 -56 36 -37 44 -50 34 -59 -10 -9 -12 -9 -8 2
2 8 -17 35 -44 60 -47 45 -58 61 -38 61 6 0 10 -3 10 -8z m105 -132 c3 -5 1
-10 -4 -10 -6 0 -11 5 -11 10 0 6 2 10 4 10 3 0 8 -4 11 -10z m75 -92 c0 -6 8
-17 18 -24 9 -7 12 -14 5 -14 -11 0 -83 90 -83 104 0 4 14 -7 30 -24 17 -17
30 -36 30 -42z m50 -63 c20 -24 6 -28 -15 -5 -10 11 -13 20 -8 20 6 0 16 -7
23 -15z m3985 -81 c-5 -65 -16 -69 -14 -6 1 29 6 52 10 52 4 0 6 -21 4 -46z
m-5 -179 c0 -43 -4 -75 -10 -75 -5 0 -10 17 -10 38 0 41 10 112 16 112 2 0 4
-34 4 -75z m-4925 -265 c3 -5 1 -10 -4 -10 -6 0 -11 5 -11 10 0 6 2 10 4 10 3
0 8 -4 11 -10z m4925 -232 c0 -127 -4 -229 -10 -238 -6 -10 -10 65 -10 223 0
151 4 237 10 237 6 0 10 -81 10 -222z m2504 37 c60 -4 119 -14 151 -26 53 -20
105 -59 105 -79 0 -5 5 -10 10 -10 6 0 10 -13 10 -30 0 -19 5 -30 14 -30 16 0
19 -7 36 -90 21 -96 1 -302 -31 -333 -11 -10 -19 -15 -19 -12 0 3 -5 3 -11 -1
-8 -4 -8 -9 0 -17 18 -18 13 -37 -6 -30 -16 6 -17 5 -3 -12 14 -17 13 -18 -3
-12 -23 9 -91 -94 -82 -123 4 -12 2 -20 -5 -20 -6 0 7 -18 30 -41 22 -22 40
-45 40 -50 0 -6 5 -7 11 -3 8 4 9 0 4 -15 -3 -11 -3 -21 2 -21 4 0 14 -10 22
-21 12 -20 11 -21 -6 -15 -10 4 10 -21 45 -54 34 -34 62 -66 62 -71 0 -5 -65
-9 -148 -9 -145 0 -149 1 -172 25 -12 13 -26 23 -29 20 -4 -2 -13 0 -21 6 -13
7 -13 9 0 9 8 0 -2 11 -22 24 -47 28 -79 57 -73 65 2 4 -5 8 -16 8 -11 1 -34
16 -52 32 -17 17 -36 31 -43 31 -6 0 -11 8 -10 18 1 11 -6 17 -22 17 -12 0
-36 13 -53 28 -17 14 -48 37 -70 49 -21 12 -39 25 -39 28 0 4 -12 5 -27 3 -69
-8 -103 -16 -103 -23 0 -5 -9 -11 -20 -15 -12 -4 -24 -21 -31 -48 -6 -23 -15
-51 -19 -62 -16 -39 -60 -187 -60 -201 0 -11 -20 -14 -99 -14 -55 0 -102 4
-106 10 -24 39 -21 1054 4 1083 6 8 40 17 81 20 38 3 76 9 84 14 16 9 534 7
690 -2z m1656 -4 c52 -6 111 -12 130 -14 l35 -2 0 -80 0 -80 -44 -3 c-24 -2
-51 -10 -59 -19 -10 -9 -25 -13 -43 -9 -16 3 -31 2 -33 -3 -8 -12 -94 -21
-266 -26 -258 -9 -279 -13 -300 -69 -8 -23 -7 -32 12 -56 19 -22 36 -30 93
-39 39 -6 97 -12 130 -14 45 -1 60 -6 60 -17 0 -8 -11 -17 -25 -21 -15 -4 8
-7 58 -8 l82 -1 0 -85 0 -85 -35 0 c-19 0 -35 -4 -35 -9 0 -16 -62 -31 -131
-31 -37 0 -71 -5 -74 -10 -3 -6 -17 -7 -29 -4 -31 7 -98 -27 -115 -60 -19 -35
-16 -84 6 -108 38 -42 61 -46 299 -53 154 -3 244 -10 274 -20 25 -7 41 -15 35
-16 -5 -2 26 -5 70 -8 l80 -6 3 -82 3 -83 -98 -1 c-54 0 -92 -3 -85 -6 6 -2
10 -9 6 -14 -7 -13 -751 -12 -759 1 -3 6 0 11 7 12 7 1 -25 4 -72 7 l-85 6 -6
70 c-3 39 -6 63 -7 55 -2 -11 -5 -11 -14 -2 -10 10 -13 102 -13 390 0 369 7
491 26 461 6 -9 9 10 9 53 0 75 -4 72 90 82 25 3 68 9 95 13 74 12 615 8 725
-6z m5058 3 c20 -7 63 -13 94 -14 56 0 57 0 63 -33 4 -17 5 -55 3 -82 -3 -49
-4 -50 -38 -53 -19 -2 -39 -7 -45 -12 -10 -8 -55 -15 -155 -25 -30 -3 -70 -11
-90 -17 -108 -37 -126 -83 -138 -354 -5 -110 -9 -212 -9 -229 0 -33 -10 -147
-21 -240 l-7 -60 -102 -3 -103 -3 0 61 c0 34 -6 73 -13 88 -10 20 -15 85 -16
242 -3 278 -13 380 -42 423 -30 43 -59 67 -85 67 -11 0 -24 4 -30 10 -5 5 -47
12 -94 16 -47 3 -98 12 -115 20 -16 7 -46 14 -65 16 l-35 3 0 80 0 80 73 3
c39 2 72 7 72 12 0 14 77 17 483 17 290 0 386 -3 415 -13z m2097 -3 c33 -6 81
-11 106 -11 62 0 71 -13 67 -97 l-3 -68 -34 -3 c-19 -2 -44 -10 -56 -18 -12
-8 -35 -14 -51 -13 -16 1 -54 -4 -84 -10 -30 -7 -129 -14 -220 -17 -277 -8
-292 -12 -305 -72 -6 -29 -3 -37 31 -67 l38 -35 112 0 c85 0 114 -3 124 -15
10 -12 6 -16 -22 -24 -28 -8 -20 -9 50 -10 l83 -1 -3 -82 -3 -83 -40 -3 c-22
-2 -47 -10 -56 -18 -18 -16 -115 -33 -190 -34 -66 0 -101 -15 -128 -56 -44
-64 -27 -115 52 -155 33 -17 50 -19 140 -13 57 4 160 1 232 -5 175 -16 210
-22 193 -32 -8 -5 16 -9 58 -9 89 0 96 -7 92 -97 l-3 -68 -140 -5 c-77 -3
-126 -7 -108 -8 17 -1 35 -6 38 -12 7 -11 -672 -14 -712 -4 -13 4 -20 10 -17
15 3 5 -28 9 -69 9 l-75 0 -7 53 c-4 28 -14 63 -23 77 -15 22 -17 68 -17 405
1 377 1 381 27 475 l26 95 68 7 c38 4 91 11 118 15 72 12 640 7 711 -6z m1395
9 c173 -22 225 -41 274 -103 26 -33 30 -46 34 -120 l4 -84 -31 -11 c-17 -7
-44 -17 -60 -23 -18 -6 -28 -16 -25 -24 3 -7 1 -16 -5 -20 -6 -3 -14 1 -17 9
-3 9 -12 16 -20 16 -10 0 -11 -6 -4 -25 8 -22 7 -25 -13 -26 -17 -1 -18 -2 -4
-6 10 -3 24 1 32 7 18 15 35 5 35 -21 0 -12 10 -23 26 -29 18 -7 24 -15 20
-26 -4 -10 5 -24 23 -40 16 -13 33 -39 36 -57 4 -17 11 -36 15 -42 11 -15 24
-112 23 -180 0 -104 -16 -179 -52 -245 -4 -8 -25 -28 -45 -45 l-38 -30 -161
-6 c-89 -3 -127 -6 -85 -7 42 -1 80 -6 83 -12 4 -7 -105 -10 -319 -10 -293 0
-359 5 -313 23 6 3 -19 6 -57 6 -59 1 -76 5 -116 31 -57 36 -88 72 -91 102 -6
67 2 169 14 173 6 2 26 10 42 16 61 23 145 21 145 -4 0 -7 14 -12 33 -12 23 0
31 -4 30 -15 -2 -9 16 -25 45 -39 44 -23 59 -25 247 -29 215 -4 267 2 309 41
35 32 44 82 17 99 -12 7 -21 18 -21 24 0 7 -8 15 -17 19 -29 12 -494 15 -536
4 -42 -11 -101 -3 -92 12 4 5 -1 6 -9 3 -9 -3 -13 -10 -10 -15 3 -5 2 -9 -1
-9 -11 0 -75 69 -75 80 0 6 -6 13 -13 16 -8 3 -20 27 -27 54 -8 28 -17 50 -22
50 -4 0 -8 11 -8 25 0 14 -7 28 -15 31 -9 4 -15 18 -14 38 1 30 1 30 9 6 8
-24 8 -23 9 8 1 18 -3 31 -8 28 -5 -4 -12 7 -16 22 -8 38 -2 171 7 165 5 -2 8
6 8 19 0 18 2 20 10 8 8 -12 10 -9 10 13 0 15 5 33 10 40 6 7 20 25 32 41 27
36 87 62 167 71 34 4 75 11 89 15 37 11 410 11 502 0z m-7321 -69 c25 -25 38
-40 29 -32 -20 15 -23 9 -7 -20 5 -11 14 -17 20 -14 15 10 50 -37 45 -63 -3
-18 -1 -20 10 -11 13 11 15 9 14 -16 -1 -3 6 -13 15 -22 9 -8 13 -23 10 -31
-3 -9 -3 -13 1 -9 7 6 35 -38 75 -118 22 -44 34 -65 64 -109 11 -17 25 -44 31
-60 7 -17 17 -30 23 -29 6 2 14 -12 19 -30 4 -17 12 -31 16 -29 4 1 21 -23 37
-55 16 -32 35 -62 42 -68 26 -21 78 -135 72 -158 -5 -17 -4 -18 4 -7 17 25 25
2 7 -24 -8 -14 -12 -27 -7 -31 5 -3 12 1 14 7 3 7 6 -3 7 -22 0 -19 7 -46 15
-60 27 -48 23 -50 -100 -50 -97 0 -115 2 -115 15 0 9 -6 18 -14 21 -8 3 -17
20 -21 37 -4 18 -9 26 -12 20 -6 -17 -43 2 -43 22 0 8 -5 15 -12 15 -7 0 -28
16 -48 35 -54 53 -142 68 -378 63 -183 -3 -188 -4 -234 -30 -26 -16 -51 -28
-57 -28 -16 0 -66 -51 -63 -64 2 -6 1 -8 -3 -4 -8 8 -95 -75 -95 -91 0 -7 -35
-11 -105 -11 -58 0 -105 2 -105 5 0 3 11 27 24 53 27 53 34 91 22 111 -7 10
-4 12 13 6 22 -7 30 10 9 18 -10 4 -10 7 0 18 6 7 12 22 12 33 0 18 1 18 19 2
19 -17 19 -17 17 19 -3 33 22 83 46 93 5 2 8 9 8 16 0 6 9 19 20 29 11 9 20
26 20 37 0 11 6 19 13 18 6 -2 12 6 12 17 0 30 28 85 43 85 7 0 11 4 8 9 -8
12 4 42 14 36 5 -3 11 8 15 25 4 16 13 30 21 30 8 0 14 8 14 19 0 10 6 24 14
30 8 7 12 22 10 34 -2 12 -1 16 2 8 5 -10 11 -4 18 20 7 19 17 33 24 31 15 -3
15 4 2 29 -9 15 -7 19 7 19 12 0 25 15 38 45 11 25 23 45 27 45 4 0 4 7 1 17
-4 10 -2 14 5 9 6 -3 13 3 17 14 3 11 11 20 17 20 5 0 8 7 4 15 -3 8 -1 15 4
15 5 0 21 18 36 40 24 36 30 39 78 42 118 7 146 0 195 -51z m1099 37 c7 -7 12
-39 12 -76 0 -40 4 -61 10 -57 6 3 12 0 14 -7 3 -7 9 -143 15 -303 6 -174 15
-304 22 -325 31 -91 88 -117 286 -130 81 -5 191 -10 243 -11 69 -1 85 -4 60
-9 -25 -5 -8 -8 61 -9 64 -1 100 -5 106 -13 11 -14 15 -99 6 -136 -5 -22 -8
-22 -182 -24 -99 -1 -136 -4 -83 -5 50 -2 92 -8 92 -13 0 -6 -134 -10 -355
-10 -299 0 -355 2 -362 14 -6 10 -30 16 -78 18 l-69 3 -11 62 c-6 34 -17 69
-25 77 -9 12 -11 40 -7 114 4 53 13 247 22 431 13 306 20 393 32 414 7 12 178
8 191 -5z m1392 -58 c4 -58 6 -61 13 -31 9 43 14 38 33 -35 12 -44 14 -84 10
-159 -4 -55 -9 -206 -11 -335 -3 -129 -8 -250 -11 -269 -6 -36 -19 -32 -27 9
-2 14 -5 -30 -6 -97 l-1 -123 -105 0 -105 0 -1 78 c-1 42 -4 67 -7 54 -7 -22
-7 -21 -21 8 -10 23 -12 59 -7 138 3 59 9 217 13 352 7 222 9 234 14 130 4
-91 5 -69 7 112 2 170 5 228 15 232 6 2 53 4 102 3 l90 -2 5 -65z m1980 -5 c4
-50 8 -65 14 -51 8 16 11 14 23 -15 20 -48 31 -227 27 -464 -4 -239 -10 -325
-26 -360 -10 -23 -12 -23 -24 -7 -11 14 -13 6 -14 -61 l0 -78 -102 3 -103 3
-5 265 c-5 252 -6 257 -9 100 -4 -163 -4 -161 -13 115 -4 154 -9 321 -11 370
-4 98 11 190 24 144 5 -16 7 -4 8 37 1 33 4 64 8 68 4 4 50 5 103 4 l95 -3 5
-70z m-14522 -35 c7 -11 11 -20 9 -20 -2 0 -12 9 -22 20 -10 11 -14 20 -9 20
5 0 15 -9 22 -20z m4666 -360 c1 -28 -2 -50 -6 -50 -9 0 -11 12 -12 82 -2 63
15 33 18 -32z m11893 -12 c-3 -8 -6 -5 -6 6 -1 11 2 17 5 13 3 -3 4 -12 1 -19z
m-11887 -106 c0 -7 -4 -10 -10 -7 -5 3 -10 16 -10 28 0 18 2 19 10 7 5 -8 10
-21 10 -28z m-4246 -48 c5 -14 4 -15 -9 -4 -17 14 -19 20 -6 20 5 0 12 -7 15
-16z m8969 -49 c-3 -9 -8 -14 -10 -11 -3 3 -2 9 2 15 9 16 15 13 8 -4z m-4726
-57 c-2 -13 -4 -3 -4 22 0 25 2 35 4 23 2 -13 2 -33 0 -45z m11983 -18 c0 -5
-4 -10 -9 -10 -6 0 -13 5 -16 10 -3 6 1 10 9 10 9 0 16 -4 16 -10z m-11983
-92 c-2 -13 -4 -3 -4 22 0 25 2 35 4 23 2 -13 2 -33 0 -45z m4213 -68 c0 -5
-5 -10 -11 -10 -5 0 -7 5 -4 10 3 6 8 10 11 10 2 0 4 -4 4 -10z m-4213 -72
c-2 -13 -4 -3 -4 22 0 25 2 35 4 23 2 -13 2 -33 0 -45z m7900 5 c-3 -10 -5 -4
-5 12 0 17 2 24 5 18 2 -7 2 -21 0 -30z m-11856 5 c11 -21 11 -22 -4 -9 -10 7
-17 17 -17 22 0 15 9 10 21 -13z m3946 -90 c-3 -8 -6 -5 -6 6 -1 11 2 17 5 13
3 -3 4 -12 1 -19z m4 -51 c-6 -6 -11 -25 -11 -41 0 -27 -12 -83 -26 -125 -2
-8 -7 -11 -10 -9 -3 3 2 39 11 79 9 41 19 84 21 97 3 13 9 20 15 16 8 -4 7
-10 0 -17z m-3651 -227 c0 -5 -2 -10 -4 -10 -3 0 -8 5 -11 10 -3 6 -1 10 4 10
6 0 11 -4 11 -10z m3590 -20 c0 -11 -4 -20 -9 -20 -5 0 -7 9 -4 20 3 11 7 20
9 20 2 0 4 -9 4 -20z m-50 -142 c0 -7 -5 -20 -10 -28 -8 -12 -10 -9 -10 13 0
15 5 27 10 27 6 0 10 -6 10 -12z m-94 -174 c-10 -14 -20 -23 -23 -20 -3 3 2
17 11 32 10 14 20 23 23 20 3 -3 -2 -17 -11 -32z m-69 -90 c-15 -15 -27 -23
-27 -19 0 12 42 56 48 50 3 -3 -7 -17 -21 -31z m-45 -56 c-7 -7 -12 -8 -12 -2
0 14 12 26 19 19 2 -3 -1 -11 -7 -17z m-2942 -46 c0 -15 -2 -15 -10 -2 -13 20
-13 33 0 25 6 -3 10 -14 10 -23z m2910 8 c0 -13 -49 -60 -63 -60 -5 0 2 12 17
26 14 15 26 31 26 35 0 5 5 9 10 9 6 0 10 -5 10 -10z m-60 -85 c0 -7 -30 -13
-34 -7 -3 4 4 9 15 9 10 1 19 0 19 -2z m-80 -58 c0 -14 -35 -39 -44 -30 -6 7
24 41 37 42 4 1 7 -5 7 -12z m-60 -46 c0 -5 -9 -11 -21 -14 -16 -4 -18 -3 -8
9 13 16 29 19 29 5z m-110 -71 c0 -5 -5 -10 -11 -10 -5 0 -7 5 -4 10 3 6 8 10
11 10 2 0 4 -4 4 -10z m-2210 -55 c14 -8 21 -14 15 -14 -5 0 -21 6 -35 14 -14
8 -20 14 -15 14 6 0 21 -6 35 -14z m2136 3 c5 -8 2 -9 -9 -5 -10 3 -17 2 -17
-3 0 -6 -8 -10 -17 -10 -16 1 -16 2 1 15 24 18 33 19 42 3z m-100 -43 c-23
-17 -36 -19 -36 -6 0 5 8 12 18 14 32 9 37 6 18 -8z m-1596 -105 c12 -8 10
-10 -10 -9 -14 0 -34 4 -45 9 -17 7 -16 9 10 9 17 0 37 -4 45 -9z m1295 0
c-11 -5 -40 -8 -65 -8 -45 1 -45 1 -10 8 19 4 49 8 65 8 25 0 27 -1 10 -8z
m-1025 -40 c0 -5 -2 -10 -4 -10 -3 0 -8 5 -11 10 -3 6 -1 10 4 10 6 0 11 -4
11 -10z m705 2 c-9 -10 -96 -11 -90 -2 3 5 26 9 51 8 25 0 42 -3 39 -6z m52 2
c-3 -3 -12 -4 -19 -1 -8 3 -5 6 6 6 11 1 17 -2 13 -5z m-557 -8 c0 -11 -19
-15 -25 -6 -3 5 1 10 9 10 9 0 16 -2 16 -4z m290 -6 c0 -12 -27 -12 -55 0 -16
7 -13 9 18 9 20 1 37 -3 37 -9z m73 3 c-13 -2 -33 -2 -45 0 -13 2 -3 4 22 4
25 0 35 -2 23 -4z"/>
<path d="M2667 7260 c-69 -18 -153 -85 -190 -155 l-22 -40 -3 -1917 -2 -1917
-26 -20 c-55 -43 -89 -23 -182 105 -23 33 -56 75 -74 94 -17 19 -94 113 -172
209 -77 95 -154 190 -171 210 -213 261 -266 313 -370 361 -42 19 -71 24 -185
28 -119 3 -142 1 -194 -17 -110 -39 -214 -129 -262 -227 -26 -54 -29 -69 -29
-164 0 -89 4 -114 24 -160 29 -67 84 -152 140 -218 23 -27 54 -66 69 -85 40
-52 195 -241 203 -247 3 -3 46 -54 94 -115 49 -60 93 -113 98 -116 4 -3 25
-28 45 -56 35 -47 327 -412 368 -460 11 -11 35 -41 54 -64 19 -24 61 -75 93
-113 33 -39 75 -91 95 -115 21 -25 47 -56 59 -70 12 -14 37 -45 55 -68 18 -22
85 -106 148 -185 108 -133 315 -407 370 -488 78 -115 234 -271 335 -335 89
-57 241 -130 315 -153 298 -92 603 -122 1025 -102 138 6 266 15 285 20 19 5
62 12 95 16 102 12 294 72 400 125 151 77 166 86 262 163 199 160 342 352 427
576 15 41 34 91 42 110 28 74 48 242 46 390 -1 80 -3 1103 -4 2275 -3 1789 -5
2136 -17 2165 -24 61 -62 101 -120 129 -48 22 -69 26 -151 26 -80 -1 -103 -5
-142 -24 -63 -32 -92 -65 -117 -130 -18 -49 -21 -91 -30 -400 -6 -190 -13
-884 -15 -1541 -4 -767 -9 -1217 -16 -1258 -32 -188 -138 -314 -330 -388 -254
-99 -492 -66 -695 97 -40 32 -81 59 -90 59 -10 0 -41 -17 -69 -37 -115 -82
-266 -133 -397 -133 -64 0 -196 24 -259 47 -88 32 -207 111 -250 166 -36 45
-90 162 -100 216 -6 31 -10 225 -10 450 0 218 -5 612 -10 876 -5 264 -10 795
-11 1180 -3 903 -11 1159 -40 1239 -43 120 -138 186 -274 192 -44 2 -97 -1
-118 -6z m80 -20 c9 0 13 -3 9 -7 -3 -4 -24 -6 -46 -5 -22 2 -40 -1 -40 -5 0
-8 -47 -33 -63 -33 -5 0 -7 5 -5 12 5 14 98 48 116 42 8 -2 21 -4 29 -4z m150
-18 c18 -9 33 -19 33 -24 0 -12 -14 -10 -28 4 -7 7 -12 9 -12 4 0 -4 -10 0
-22 8 -12 9 -38 16 -58 16 -26 0 -31 3 -20 10 17 11 61 4 107 -18z m-300 -39
c2 -6 -9 -16 -25 -22 -16 -7 -29 -19 -30 -27 -1 -7 -3 -21 -4 -29 -1 -9 -6
-14 -12 -12 -33 11 -35 -69 -36 -1685 0 -1082 -3 -1598 -10 -1598 -7 0 -10
517 -10 1605 1 1791 -4 1661 70 1746 34 38 50 44 57 22z m398 -41 c-3 -3 -11
0 -18 7 -9 10 -8 11 6 5 10 -3 15 -9 12 -12z m35 -48 c0 -8 -5 -14 -11 -14 -5
0 -8 4 -4 9 3 5 1 12 -5 16 -5 3 -10 11 -10 17 0 7 6 6 15 -2 8 -7 15 -19 15
-26z m27 -171 c-3 -10 -5 -2 -5 17 0 19 2 27 5 18 2 -10 2 -26 0 -35z m2528
-304 c-4 -5 -11 -9 -17 -9 -21 0 -98 -42 -93 -50 3 -5 -5 -17 -17 -27 -25 -19
-49 -65 -53 -98 -2 -11 -6 -73 -11 -138 -4 -66 -10 -113 -14 -105 -4 7 -4 72
0 143 11 190 41 248 149 286 46 16 66 16 56 -2z m115 11 c0 -5 -2 -10 -4 -10
-3 0 -8 5 -11 10 -3 6 -1 10 4 10 6 0 11 -4 11 -10z m55 -18 c-6 -7 -45 9 -45
18 0 4 11 3 24 -3 14 -7 23 -13 21 -15z m50 -12 c3 -5 -1 -10 -9 -10 -8 0 -18
5 -21 10 -3 6 1 10 9 10 8 0 18 -4 21 -10z m49 -47 c25 -32 39 -63 27 -63 -8
0 -61 74 -61 85 0 12 14 3 34 -22z m-477 -455 c-3 -8 -6 -5 -6 6 -1 11 2 17 5
13 3 -3 4 -12 1 -19z m3 -118 c0 -22 -4 -40 -10 -40 -11 0 -14 63 -3 73 11 12
13 8 13 -33z m0 -85 c0 -8 -4 -15 -10 -15 -5 0 -10 7 -10 15 0 8 5 15 10 15 6
0 10 -7 10 -15z m-6 -146 c-6 -107 -14 -97 -13 17 0 67 3 92 9 77 5 -12 7 -54
4 -94z m-7 -191 c-2 -18 -4 -4 -4 32 0 36 2 50 4 33 2 -18 2 -48 0 -65z m0
-210 c-2 -24 -4 -5 -4 42 0 47 2 66 4 43 2 -24 2 -62 0 -85z m0 -470 c-1 -46
-3 -9 -3 82 0 91 2 128 3 83 2 -46 2 -120 0 -165z m0 -1101 c-1 -166 -2 -30
-2 303 0 333 1 469 2 302 2 -166 2 -438 0 -605z m-4152 423 c-3 -5 -15 -10
-25 -10 -11 0 -40 -7 -66 -16 -37 -12 -49 -13 -58 -3 -8 9 -7 11 5 6 9 -3 21
-1 26 4 5 5 29 13 54 18 62 12 71 12 64 1z m171 -15 c24 -18 11 -18 -46 -1
l-45 15 36 0 c19 1 44 -6 55 -14z m49 -15 c3 -5 1 -10 -4 -10 -6 0 -11 5 -11
10 0 6 2 10 4 10 3 0 8 -4 11 -10z m-385 -15 c0 -8 -7 -15 -16 -15 -8 0 -31
-12 -50 -26 -35 -27 -49 -20 -16 8 13 12 56 37 80 47 1 1 2 -6 2 -14z m437
-12 c3 -7 -3 -9 -16 -6 -12 3 -21 10 -21 15 0 13 32 6 37 -9z m48 -31 c-3 -3
-11 0 -18 7 -9 10 -8 11 6 5 10 -3 15 -9 12 -12z m-613 -49 c5 -11 -51 -63
-56 -54 -6 9 34 61 45 61 4 0 9 -3 11 -7z m718 -45 c0 -5 -7 -3 -15 6 -8 8
-15 18 -15 22 0 3 7 1 15 -6 8 -7 15 -17 15 -22z m-789 -52 c-7 -8 -10 -20 -6
-26 3 -5 2 -10 -4 -10 -25 0 -34 -199 -10 -225 5 -5 9 -20 9 -35 -1 -19 -6
-14 -21 25 -30 75 -28 169 5 241 14 31 29 54 33 51 3 -4 0 -13 -6 -21z m67
-435 c7 -16 24 -41 37 -55 14 -15 25 -32 25 -39 0 -7 -11 2 -25 18 -13 17 -29
35 -35 42 -5 7 -10 17 -10 23 0 5 -4 10 -9 10 -5 0 -11 7 -15 15 -10 28 19 15
32 -14z m4449 -123 c-2 -13 -4 -3 -4 22 0 25 2 35 4 23 2 -13 2 -33 0 -45z
m-4328 -27 c32 -45 25 -58 -9 -16 -33 41 -35 45 -21 45 5 0 19 -13 30 -29z
m4331 -22 c0 -5 -4 -9 -10 -9 -5 0 -10 7 -10 16 0 8 5 12 10 9 6 -3 10 -10 10
-16z m-2890 -39 c0 -5 -2 -10 -4 -10 -3 0 -8 5 -11 10 -3 6 -1 10 4 10 6 0 11
-4 11 -10z m2876 -37 c-3 -10 -10 -37 -16 -60 -6 -24 -15 -43 -20 -43 -8 0 14
91 27 113 8 14 14 7 9 -10z m-4226 -15 c29 -32 14 -37 -18 -5 -14 15 -21 27
-15 27 7 0 21 -10 33 -22z m4180 -118 c0 -5 -5 -10 -11 -10 -5 0 -7 5 -4 10 3
6 8 10 11 10 2 0 4 -4 4 -10z m-4065 -30 c3 -11 11 -20 16 -20 5 0 9 -5 9 -11
0 -8 -5 -7 -16 1 -21 18 -37 50 -25 50 5 0 13 -9 16 -20z m3005 -96 c17 -15
29 -29 26 -32 -3 -3 -11 0 -18 6 -16 13 -86 9 -116 -7 -51 -26 -62 -31 -68
-31 -10 0 87 71 109 80 32 13 33 12 67 -16z m-2894 -33 c0 -11 -6 -17 -13 -14
-6 3 -9 11 -6 19 7 20 19 17 19 -5z m3817 -6 c-3 -9 -8 -14 -10 -11 -3 3 -2 9
2 15 9 16 15 13 8 -4z m-3736 -95 c7 -8 13 -19 13 -23 0 -14 -18 2 -42 36 -19
28 -20 30 -3 17 11 -8 25 -22 32 -30z m2136 3 c-7 -2 -19 -2 -25 0 -7 3 -2 5
12 5 14 0 19 -2 13 -5z m1412 -13 c-3 -5 -11 -10 -16 -10 -6 0 -7 5 -4 10 3 6
11 10 16 10 6 0 7 -4 4 -10z m-1228 -6 c-3 -3 -12 -4 -19 -1 -8 3 -5 6 6 6 11
1 17 -2 13 -5z m110 0 c-3 -3 -12 -4 -19 -1 -8 3 -5 6 6 6 11 1 17 -2 13 -5z
m-2383 -39 c3 -8 1 -15 -3 -15 -5 0 -11 7 -15 15 -3 8 -1 15 3 15 5 0 11 -7
15 -15z m35 -59 c-3 -3 -11 5 -18 17 -13 21 -12 21 5 5 10 -10 16 -20 13 -22z
m52 -53 c13 -16 12 -17 -3 -4 -17 13 -22 21 -14 21 2 0 10 -8 17 -17z m55 -68
c9 -8 11 -15 6 -15 -5 0 -15 7 -22 15 -7 8 -9 15 -6 15 4 0 14 -7 22 -15z m34
-50 c14 -19 14 -19 -2 -6 -10 7 -18 18 -18 24 0 6 1 8 3 6 1 -2 9 -13 17 -24z
m78 -100 c-3 -3 -13 7 -23 22 l-17 28 23 -22 c12 -12 20 -25 17 -28z m109
-111 c13 -14 21 -30 18 -35 -7 -11 -26 6 -44 39 -16 30 -4 28 26 -4z m101
-140 c-7 -6 -58 47 -58 60 0 6 14 -4 31 -22 17 -18 29 -35 27 -38z m110 -128
c8 -15 20 -30 28 -33 8 -3 11 -9 9 -14 -3 -4 -15 1 -25 11 -11 11 -19 22 -17
24 1 2 -7 14 -18 26 -14 16 -16 22 -5 18 8 -2 21 -17 28 -32z m142 -176 c0 -5
-4 -10 -10 -10 -5 0 -10 5 -10 10 0 6 5 10 10 10 6 0 10 -4 10 -10z m65 -72
c38 -40 26 -36 -22 8 -20 19 -29 34 -20 34 2 0 21 -19 42 -42z m3632 -80 c-3
-8 -6 -5 -6 6 -1 11 2 17 5 13 3 -3 4 -12 1 -19z m-3521 -53 c20 -25 35 -48
32 -50 -6 -6 -68 61 -68 74 0 5 -6 12 -12 14 -9 4 -10 6 -1 6 6 1 28 -19 49
-44z m64 -100 c0 -5 -5 -3 -10 5 -5 8 -10 20 -10 25 0 6 5 3 10 -5 5 -8 10
-19 10 -25z m90 -96 c21 -20 32 -49 20 -49 -6 0 -10 4 -10 9 0 5 -13 22 -30
38 -16 15 -30 32 -30 37 0 8 20 -5 50 -35z m134 -186 c40 -51 48 -77 13 -41
-23 24 -57 73 -57 83 0 11 9 3 44 -42z m86 -139 c0 -3 -7 -1 -15 6 -8 7 -15
17 -15 22 0 5 7 3 15 -6 8 -8 15 -18 15 -22z m2851 -37 c-10 -9 -11 -8 -5 6 3
10 9 15 12 12 3 -3 0 -11 -7 -18z m-2752 -72 c-7 -6 -49 33 -49 46 0 5 12 -1
27 -15 15 -14 25 -28 22 -31z m67 -52 c13 -8 21 -19 19 -24 -6 -9 -36 -1 -32
9 1 4 -1 8 -5 10 -16 5 -45 37 -41 45 2 4 11 0 20 -9 9 -8 26 -22 39 -31z m54
-53 c0 -5 -2 -10 -4 -10 -3 0 -8 5 -11 10 -3 6 -1 10 4 10 6 0 11 -4 11 -10z
m45 -40 c3 -5 2 -10 -4 -10 -5 0 -13 5 -16 10 -3 6 -2 10 4 10 5 0 13 -4 16
-10z m160 -100 c3 -5 1 -10 -4 -10 -6 0 -11 5 -11 10 0 6 2 10 4 10 3 0 8 -4
11 -10z m45 -22 c0 -6 -6 -5 -15 2 -8 7 -15 14 -15 16 0 2 7 1 15 -2 8 -4 15
-11 15 -16z m100 -38 c12 -8 9 -10 -12 -10 -15 0 -30 5 -33 10 -8 13 25 13 45
0z m70 -30 c13 -9 13 -10 0 -10 -8 0 -22 5 -30 10 -13 9 -13 10 0 10 8 0 22
-5 30 -10z m357 -76 c-3 -3 -12 -4 -19 -1 -8 3 -5 6 6 6 11 1 17 -2 13 -5z"/>
<path d="M3588 5157 c-110 -42 -195 -122 -220 -210 -12 -40 -16 -107 -17 -253
0 -109 -3 -289 -6 -399 -4 -110 -2 -369 3 -575 9 -418 10 -424 85 -506 41 -46
78 -66 171 -93 88 -27 175 -27 262 1 127 39 191 98 224 207 19 60 20 95 20
805 0 730 0 742 -22 814 -18 64 -28 79 -75 122 -85 78 -127 93 -268 97 -84 2
-131 -1 -157 -10z m82 -17 c0 -5 -4 -10 -10 -10 -5 0 -10 5 -10 10 0 6 5 10
10 10 6 0 10 -4 10 -10z m-74 -18 c-3 -5 -26 -17 -51 -27 -25 -11 -45 -24 -45
-30 0 -5 -15 -23 -34 -39 -19 -15 -40 -41 -46 -57 -7 -16 -18 -29 -24 -29 -6
0 -4 -5 4 -10 11 -7 12 -14 4 -27 -6 -10 -12 -63 -13 -118 -1 -55 -7 -104 -13
-110 -6 -7 -9 32 -6 120 3 105 8 139 24 175 25 52 75 106 130 137 39 22 80 31
70 15z m330 -13 c3 -5 -6 -9 -19 -9 -14 0 -27 6 -30 13 -4 10 2 13 19 9 13 -2
27 -8 30 -13z m85 -58 c16 -16 29 -38 29 -48 0 -13 -11 -6 -40 26 -22 24 -40
45 -40 47 0 13 26 0 51 -25z m58 -108 c10 -35 8 -53 -5 -40 -10 10 -22 77 -13
77 4 0 13 -17 18 -37z m-680 -373 c-2 -107 -17 -120 -18 -15 0 68 2 95 9 85 5
-8 9 -40 9 -70z m-12 -572 c-1 -46 -3 -11 -3 77 0 88 2 125 3 83 2 -42 2 -114
0 -160z m15 -441 c9 -226 11 -247 29 -261 8 -6 22 -23 32 -38 10 -16 23 -28
30 -28 7 0 17 -10 22 -22 6 -12 27 -27 50 -34 22 -7 58 -20 80 -28 l40 -16
-45 5 c-70 9 -125 35 -174 81 -73 69 -80 95 -84 324 -2 113 0 201 5 197 4 -5
11 -86 15 -180z m674 -235 c-19 -36 -36 -49 -36 -28 0 9 4 16 8 16 5 0 14 12
21 26 6 15 14 24 17 21 3 -3 -2 -19 -10 -35z m-26 -61 c0 -5 -7 -14 -15 -21
-12 -10 -15 -10 -15 2 0 8 3 18 7 21 9 10 23 9 23 -2z m-60 -60 c0 -13 -107
-61 -133 -60 -20 2 -20 2 3 6 14 3 36 12 50 22 64 42 80 48 80 32z m-232 -68
c-10 -2 -28 -2 -40 0 -13 2 -5 4 17 4 22 1 32 -1 23 -4z"/>
<path d="M4244 3805 c0 -115 2 -161 3 -102 2 59 2 154 0 210 -1 56 -3 8 -3
-108z"/>
<path d="M3232 3665 c0 -16 2 -22 5 -12 2 9 2 23 0 30 -3 6 -5 -1 -5 -18z"/>
<path d="M8821 6078 c-123 -13 -225 -59 -278 -126 -41 -50 -71 -109 -79 -149
-3 -18 -10 -36 -15 -39 -5 -3 -9 -105 -9 -227 0 -207 2 -227 24 -289 49 -142
150 -230 296 -260 157 -32 347 -16 448 38 1 1 -31 36 -73 79 -59 61 -73 81
-64 91 6 8 16 14 21 14 6 0 46 -31 89 -70 44 -38 85 -70 92 -70 20 0 78 73
111 140 l31 65 0 245 c0 238 -1 247 -25 308 -68 171 -188 245 -415 255 -44 2
-114 0 -154 -5z"/>
<path d="M11790 6038 c0 -7 -11 -35 -25 -63 -13 -27 -25 -54 -25 -59 0 -5 -6
-17 -13 -25 -8 -9 -22 -38 -32 -66 -20 -55 -47 -118 -104 -240 -60 -127 -75
-165 -68 -172 8 -8 543 -10 551 -2 6 6 -30 97 -58 149 -8 14 -17 40 -21 58 -3
17 -11 32 -16 32 -5 0 -9 5 -9 11 0 6 -18 48 -39 92 -52 109 -81 175 -81 182
0 10 -51 115 -56 115 -2 0 -4 -6 -4 -12z"/>
<path d="M4615 5124 c-11 -3 -36 -12 -55 -20 -106 -46 -132 -69 -176 -154
l-29 -55 0 -800 0 -800 31 -60 c58 -111 173 -169 339 -169 172 0 297 65 353
184 l26 55 4 680 c2 374 -1 737 -6 806 -9 120 -11 129 -45 182 -36 55 -80 91
-162 131 -31 15 -66 20 -150 22 -60 1 -119 0 -130 -2z m135 -8 c0 -3 -4 -8
-10 -11 -5 -3 -10 -1 -10 4 0 6 5 11 10 11 6 0 10 -2 10 -4z m-117 -23 c-7 -2
-19 -2 -25 0 -7 3 -2 5 12 5 14 0 19 -2 13 -5z m-48 -13 c-3 -5 -10 -10 -16
-10 -5 0 -9 5 -9 10 0 6 7 10 16 10 8 0 12 -4 9 -10z m292 4 c-3 -3 -12 -4
-19 -1 -8 3 -5 6 6 6 11 1 17 -2 13 -5z m-387 -44 c-8 -5 -11 -12 -7 -16 4 -4
2 -13 -4 -21 -12 -14 -39 -18 -39 -5 0 13 40 52 53 52 8 0 7 -4 -3 -10z m481
-7 c13 -15 12 -15 -8 -4 -24 12 -29 21 -14 21 5 0 15 -7 22 -17z m39 -33 c0
-5 -2 -10 -4 -10 -3 0 -8 5 -11 10 -3 6 -1 10 4 10 6 0 11 -4 11 -10z m-570
-34 c0 -16 -28 -42 -36 -33 -7 6 18 47 28 47 5 0 8 -6 8 -14z m-46 -125 c-7
-31 -12 -71 -12 -89 1 -18 -3 -36 -7 -40 -9 -8 1 184 11 200 16 25 21 -18 8
-71z m-17 -223 c-3 -7 -5 -2 -5 12 0 14 2 19 5 13 2 -7 2 -19 0 -25z m25
-1301 c7 -38 17 -61 29 -68 11 -5 19 -16 19 -24 0 -8 5 -15 10 -15 6 0 10 -5
10 -11 0 -12 38 -49 50 -49 4 0 7 -6 7 -14 0 -18 -23 -10 -31 10 -3 9 -10 13
-15 10 -11 -7 -60 55 -85 109 -15 32 -20 68 -22 180 l-2 140 9 -105 c5 -58 15
-131 21 -163z m661 -57 c-3 -11 -9 -20 -14 -20 -5 0 -9 -6 -9 -13 0 -8 -9 -22
-20 -32 -19 -17 -20 -17 -20 -1 0 11 5 14 12 10 7 -5 9 -2 6 8 -4 8 2 20 13
26 10 7 19 19 19 27 0 8 4 15 9 15 5 0 7 -9 4 -20z m-103 -109 c0 -9 -24 -21
-43 -21 -6 0 -2 7 9 15 22 17 34 19 34 6z m-81 -35 c-9 -10 -89 -24 -83 -15 3
5 15 9 27 9 12 0 29 4 37 10 14 8 29 5 19 -4z m-289 -6 c0 -5 -4 -10 -9 -10
-6 0 -13 5 -16 10 -3 6 1 10 9 10 9 0 16 -4 16 -10z m76 -18 c-7 -7 -66 9 -66
18 0 4 16 3 35 -3 19 -6 33 -12 31 -15z m104 2 c0 -2 -15 -4 -32 -4 -23 0 -29
3 -19 9 12 8 51 4 51 -5z"/>
<path d="M8780 2789 c0 -5 5 -7 10 -4 6 3 10 8 10 11 0 2 -4 4 -10 4 -5 0 -10
-5 -10 -11z"/>
<path d="M8018 2737 c-52 -17 -79 -47 -85 -95 -8 -63 9 -93 70 -120 46 -20 68
-22 201 -22 231 0 296 27 296 122 0 41 -34 98 -58 98 -10 0 -24 6 -30 13 -18
17 -343 20 -394 4z"/>
<path d="M9588 1853 c68 -2 176 -2 240 0 64 1 9 3 -123 3 -132 0 -185 -2 -117
-3z"/>
<path d="M10098 1853 c6 -2 18 -2 25 0 6 3 1 5 -13 5 -14 0 -19 -2 -12 -5z"/>
<path d="M16618 1853 c6 -2 18 -2 25 0 6 3 1 5 -13 5 -14 0 -19 -2 -12 -5z"/>
<path d="M16933 1853 c32 -2 81 -2 110 0 29 2 3 3 -58 3 -60 0 -84 -1 -52 -3z"/>
<path d="M18267 2723 c-27 -8 -50 -22 -53 -31 -3 -9 -10 -26 -16 -36 -9 -16
-6 -24 18 -44 16 -13 39 -28 52 -33 30 -12 410 -12 485 1 31 5 64 16 73 25 11
11 12 15 3 15 -10 0 -10 3 -2 11 17 17 4 39 -23 39 -12 0 -29 8 -36 19 -7 10
-38 26 -70 35 -75 21 -359 21 -431 -1z"/>
<path d="M18183 1853 c15 -2 39 -2 55 0 15 2 2 4 -28 4 -30 0 -43 -2 -27 -4z"/>
<path d="M18303 1853 c9 -2 23 -2 30 0 6 3 -1 5 -18 5 -16 0 -22 -2 -12 -5z"/>
<path d="M11205 2560 c-3 -11 -10 -20 -15 -20 -5 0 -19 -10 -30 -22 -18 -19
-20 -30 -14 -82 9 -74 29 -95 94 -94 52 0 101 31 125 78 18 34 19 44 5 35 -5
-3 -10 1 -10 9 0 9 -5 16 -11 16 -5 0 -7 4 -4 10 3 5 -3 15 -15 22 -11 7 -20
18 -20 24 0 6 -9 19 -20 29 -15 14 -23 15 -34 6 -10 -8 -16 -9 -21 -1 -10 16
-23 12 -30 -10z"/>
<path d="M12488 1853 c7 -3 16 -2 19 1 4 3 -2 6 -13 5 -11 0 -14 -3 -6 -6z"/>
<path d="M12598 1853 c7 -3 16 -2 19 1 4 3 -2 6 -13 5 -11 0 -14 -3 -6 -6z"/>
</g>
</svg>
